<svg width="100%" height="100%" id="svg" viewBox="0 0 1440 400" xmlns="http://www.w3.org/2000/svg" class="transition duration-300 ease-in-out delay-150"><path d="M 0,400 C 0,400 0,133 0,133 C 109.08133971291866,142.16746411483254 218.16267942583733,151.33492822966508 315,144 C 411.8373205741627,136.66507177033492 496.43062200956933,112.82775119617226 595,114 C 693.5693779904307,115.17224880382774 806.1148325358853,141.35406698564591 894,145 C 981.8851674641147,148.64593301435409 1045.11004784689,129.75598086124404 1132,124 C 1218.88995215311,118.24401913875597 1329.4449760765551,125.62200956937798 1440,133 C 1440,133 1440,400 1440,400 Z" stroke="none" stroke-width="0" fill="#bdbcf388" class="transition-all duration-300 ease-in-out delay-150 path-0" transform="rotate(-180 720 200)"></path><path d="M 0,400 C 0,400 0,266 0,266 C 91.95215311004785,246.755980861244 183.9043062200957,227.51196172248802 277,230 C 370.0956937799043,232.48803827751198 464.33492822966514,256.7081339712919 578,268 C 691.6650717703349,279.2918660287081 824.755980861244,277.6555023923445 909,267 C 993.244019138756,256.3444976076555 1028.641148325359,236.66985645933013 1109,235 C 1189.358851674641,233.33014354066987 1314.6794258373207,249.66507177033492 1440,266 C 1440,266 1440,400 1440,400 Z" stroke="none" stroke-width="0" fill="#bdbcf3ff" class="transition-all duration-300 ease-in-out delay-150 path-1" transform="rotate(-180 720 200)"></path></svg>