<?xml version="1.0" encoding="utf-8"?>
<!-- Generator: Adobe Illustrator 24.1.2, SVG Export Plug-In . SVG Version: 6.00 Build 0)  -->
<svg version="1.1" id="Слой_1" xmlns="http://www.w3.org/2000/svg" xmlns:xlink="http://www.w3.org/1999/xlink" x="0px" y="0px"
	 viewBox="0 0 800 396.85" style="enable-background:new 0 0 800 396.85;" xml:space="preserve">
<style type="text/css">
	.st0{fill:#BDBCF3;}
	.st1{opacity:0.77;}
	.st2{fill:#AEADFF;}
	.st3{opacity:0.71;}
	.st4{fill:#7D7CC7;}
	.st5{opacity:0.73;}
	.st6{fill:none;stroke:#9E3AF3;stroke-width:2;stroke-miterlimit:10;}
</style>
<rect class="st0" width="800" height="396.85"/>
<g class="st1">
	<path class="st2" d="M137.28,292.3h-22.49L69.96,186.26l2.93-3.54h38.2v-72.89H56.1V292.3H34.69V94.26h80.72
		c5.03,0,9.14,1.31,12.32,3.92c3.18,2.62,4.78,5.99,4.78,10.12v75.17c0,9.53-7.81,14.3-23.41,14.3c-1.54,0-3.8-0.06-6.78-0.19
		c-2.98-0.13-5.14-0.19-6.47-0.19C109.7,228.94,123.52,260.58,137.28,292.3z"/>
	<path class="st2" d="M263.28,278.25c0,4.13-1.57,7.51-4.7,10.12c-3.13,2.62-7.22,3.92-12.25,3.92h-60.69
		c-5.03,0-9.17-1.31-12.4-3.92c-3.24-2.61-4.85-5.99-4.85-10.12v-50.24h21.41v48.72h52.07v-47.2l-66.54-66.06
		c-4.62-4.56-6.93-9.57-6.93-15.06V108.3c0-4.13,1.62-7.51,4.85-10.12c3.23-2.61,7.37-3.92,12.4-3.92h60.69
		c5.03,0,9.11,1.31,12.25,3.92c3.13,2.62,4.7,5.99,4.7,10.12v46.06h-21.41v-44.54H189.8v41.76l66.85,66.06
		c4.41,4.39,6.62,9.32,6.62,14.81V278.25z"/>
	<path class="st2" d="M439.96,292.3h-77.02V94.26h21.41v182.48h55.61V292.3z"/>
	<path class="st2" d="M551.49,292.3h-20.18v-3.42c-8.11,0.93-16.23,1.82-24.34,2.66c-10.06,1.01-18.13,1.52-24.18,1.52
		c-11.19,0-16.79-4.56-16.79-13.67v-44.92c0-9.45,5.8-14.17,17.41-14.17h48.21v-37.08h-44.05v21.01h-19.87v-20.75
		c0-9.53,5.75-14.3,17.25-14.3h49.29c11.5,0,17.25,4.77,17.25,14.3V292.3z M531.62,276.99v-43.53h-45.75v44.29L531.62,276.99z"/>
	<path class="st2" d="M671.17,292.3h-20.49V184.23l-45.13,1.01V292.3h-20.49V169.17h20.49v3.42c8.01-0.84,16.07-1.73,24.18-2.66
		c9.86-1.01,17.97-1.52,24.34-1.52c11.4,0,17.1,4.6,17.1,13.79V292.3z"/>
	<path class="st2" d="M789.48,324.7c0,9.53-5.8,14.3-17.41,14.3h-48.68c-11.81,0-17.71-6.03-17.71-18.1c0-1.44,0.08-3.56,0.23-6.39
		c0.15-2.83,0.23-4.87,0.23-6.14h20.18v16.32h42.82v-32.4h-33.73c-9.14,0-16.74-2.51-22.8-7.53c-6.06-5.02-9.09-11.33-9.09-18.92
		v-72c0-7.25,2.67-13.31,8.01-18.16c5.34-4.85,12.37-7.28,21.1-7.28c2.36,0,14.53,1.39,36.51,4.18v-3.42h20.33V324.7z
		 M769.14,277.49v-93.01c-16.23-0.84-25.67-1.27-28.34-1.27c-11.3,0-16.94,4.73-16.94,14.17v65.93c0,9.45,5.65,14.17,16.94,14.17
		H769.14z"/>
</g>
<g class="st3">
	<path class="st4" d="M122.73,284.96h-22.49L55.41,178.91l2.93-3.54h38.2v-72.89H41.55v182.48H20.14V86.92h80.72
		c5.03,0,9.14,1.31,12.32,3.92c3.18,2.62,4.78,5.99,4.78,10.12v75.17c0,9.53-7.81,14.3-23.41,14.3c-1.54,0-3.8-0.06-6.78-0.19
		c-2.98-0.13-5.14-0.19-6.47-0.19C95.16,221.6,108.97,253.24,122.73,284.96z"/>
	<path class="st4" d="M248.73,270.91c0,4.13-1.57,7.51-4.7,10.12c-3.13,2.62-7.22,3.92-12.25,3.92H171.1
		c-5.03,0-9.17-1.31-12.4-3.92c-3.24-2.61-4.85-5.99-4.85-10.12v-50.24h21.41v48.72h52.07v-47.2l-66.54-66.06
		c-4.62-4.56-6.93-9.57-6.93-15.06v-40.11c0-4.13,1.62-7.51,4.85-10.12c3.23-2.61,7.37-3.92,12.4-3.92h60.69
		c5.03,0,9.11,1.31,12.25,3.92c3.13,2.62,4.7,5.99,4.7,10.12v46.06h-21.41v-44.54h-52.07v41.76l66.85,66.06
		c4.41,4.39,6.62,9.32,6.62,14.81V270.91z"/>
	<path class="st4" d="M425.42,284.96H348.4V86.92h21.41v182.48h55.61V284.96z"/>
	<path class="st4" d="M536.94,284.96h-20.18v-3.42c-8.11,0.93-16.23,1.82-24.34,2.66c-10.06,1.01-18.13,1.52-24.18,1.52
		c-11.19,0-16.79-4.56-16.79-13.67v-44.92c0-9.45,5.8-14.17,17.41-14.17h48.21v-37.08h-44.05v21.01h-19.87v-20.75
		c0-9.53,5.75-14.3,17.25-14.3h49.29c11.5,0,17.25,4.77,17.25,14.3V284.96z M517.07,269.65v-43.53h-45.75v44.29L517.07,269.65z"/>
	<path class="st4" d="M656.63,284.96h-20.49V176.89l-45.13,1.01v107.06h-20.49V161.83h20.49v3.42c8.01-0.84,16.07-1.73,24.18-2.66
		c9.86-1.01,17.97-1.52,24.34-1.52c11.4,0,17.1,4.6,17.1,13.79V284.96z"/>
	<path class="st4" d="M774.93,317.35c0,9.53-5.8,14.3-17.41,14.3h-48.68c-11.81,0-17.71-6.03-17.71-18.1c0-1.44,0.08-3.56,0.23-6.39
		c0.15-2.83,0.23-4.87,0.23-6.14h20.18v16.32h42.82v-32.4h-33.73c-9.14,0-16.74-2.51-22.8-7.53c-6.06-5.02-9.09-11.33-9.09-18.92
		v-72c0-7.25,2.67-13.31,8.01-18.16c5.34-4.85,12.37-7.28,21.1-7.28c2.36,0,14.53,1.39,36.51,4.18v-3.42h20.33V317.35z
		 M754.6,270.15v-93.01c-16.23-0.84-25.67-1.27-28.34-1.27c-11.3,0-16.94,4.73-16.94,14.17v65.93c0,9.45,5.65,14.17,16.94,14.17
		H754.6z"/>
</g>
<g class="st5">
	<path class="st6" d="M113.11,274.05H90.62L45.8,168.01l2.93-3.54h38.2V91.58H31.93v182.48H10.52V76.01h80.72
		c5.03,0,9.14,1.31,12.32,3.92c3.18,2.62,4.78,5.99,4.78,10.12v75.17c0,9.53-7.81,14.3-23.41,14.3c-1.54,0-3.8-0.06-6.78-0.19
		c-2.98-0.13-5.14-0.19-6.47-0.19C85.54,210.7,99.35,242.33,113.11,274.05z"/>
	<path class="st6" d="M239.12,260.01c0,4.13-1.57,7.51-4.7,10.12c-3.13,2.62-7.22,3.92-12.25,3.92h-60.69
		c-5.03,0-9.17-1.31-12.4-3.92c-3.24-2.61-4.85-5.99-4.85-10.12v-50.24h21.41v48.72h52.07v-47.2l-66.54-66.06
		c-4.62-4.56-6.93-9.57-6.93-15.06V90.06c0-4.13,1.62-7.51,4.85-10.12c3.23-2.61,7.37-3.92,12.4-3.92h60.69
		c5.03,0,9.11,1.31,12.25,3.92c3.13,2.62,4.7,5.99,4.7,10.12v46.06h-21.41V91.58h-52.07v41.76l66.85,66.06
		c4.41,4.39,6.62,9.32,6.62,14.81V260.01z"/>
	<path class="st6" d="M415.8,274.05h-77.02V76.01h21.41v182.48h55.61V274.05z"/>
	<path class="st6" d="M527.32,274.05h-20.18v-3.42c-8.11,0.93-16.23,1.82-24.34,2.66c-10.06,1.01-18.13,1.52-24.18,1.52
		c-11.19,0-16.79-4.56-16.79-13.67v-44.92c0-9.45,5.8-14.17,17.41-14.17h48.21v-37.08H463.4v21.01h-19.87v-20.75
		c0-9.53,5.75-14.3,17.25-14.3h49.29c11.5,0,17.25,4.77,17.25,14.3V274.05z M507.45,258.74v-43.53H461.7v44.29L507.45,258.74z"/>
	<path class="st6" d="M647.01,274.05h-20.49V165.98L581.39,167v107.06H560.9V150.93h20.49v3.42c8.01-0.84,16.07-1.73,24.18-2.66
		c9.86-1.01,17.97-1.52,24.34-1.52c11.4,0,17.1,4.6,17.1,13.79V274.05z"/>
	<path class="st6" d="M765.31,306.45c0,9.53-5.8,14.3-17.41,14.3h-48.68c-11.81,0-17.71-6.03-17.71-18.1c0-1.44,0.08-3.56,0.23-6.39
		c0.15-2.83,0.23-4.87,0.23-6.14h20.18v16.32h42.82v-32.4h-33.73c-9.14,0-16.74-2.51-22.8-7.53c-6.06-5.02-9.09-11.33-9.09-18.92
		v-72c0-7.25,2.67-13.31,8.01-18.16c5.34-4.85,12.37-7.28,21.1-7.28c2.36,0,14.53,1.39,36.51,4.18v-3.42h20.33V306.45z
		 M744.98,259.25v-93.01c-16.23-0.84-25.67-1.27-28.34-1.27c-11.3,0-16.94,4.73-16.94,14.17v65.93c0,9.45,5.65,14.17,16.94,14.17
		H744.98z"/>
</g>
</svg>
