<?xml version="1.0" encoding="utf-8"?>
<!-- Generator: Adobe Illustrator 24.1.2, SVG Export Plug-In . SVG Version: 6.00 Build 0)  -->
<svg version="1.1" id="Слой_1" xmlns="http://www.w3.org/2000/svg" xmlns:xlink="http://www.w3.org/1999/xlink" x="0px" y="0px"
	 viewBox="0 0 800 396.85" style="enable-background:new 0 0 800 396.85;" xml:space="preserve">
<style type="text/css">
	.st0{fill:#BDBCF3;}
	.st1{opacity:0.77;}
	.st2{fill:#8988C9;}
	.st3{opacity:0.71;}
	.st4{fill:#4B4A77;}
	.st5{opacity:0.73;}
	.st6{fill:none;stroke:#7D2EC2;stroke-width:2;stroke-miterlimit:10;}
</style>
<rect x="0" class="st0" width="800" height="396.85"/>
<g class="st1">
	<path class="st2" d="M135.24,292.02h-22.49L67.93,185.4l2.93-3.56h38.2v-73.29H54.07v183.47H32.65V92.9h80.72
		c5.03,0,9.14,1.32,12.32,3.94c3.18,2.63,4.78,6.02,4.78,10.18v75.58c0,9.59-7.81,14.38-23.41,14.38c-1.54,0-3.8-0.06-6.78-0.19
		c-2.98-0.13-5.14-0.19-6.47-0.19C107.67,228.32,121.48,260.13,135.24,292.02z"/>
	<path class="st2" d="M261.25,277.9c0,4.16-1.57,7.55-4.7,10.18c-3.13,2.63-7.22,3.94-12.25,3.94h-60.69
		c-5.03,0-9.17-1.31-12.4-3.94c-3.24-2.63-4.85-6.02-4.85-10.18v-50.51h21.41v48.99h52.07v-47.46l-66.54-66.42
		c-4.62-4.58-6.93-9.63-6.93-15.14v-40.33c0-4.16,1.62-7.55,4.85-10.18c3.23-2.63,7.37-3.94,12.4-3.94h60.69
		c5.03,0,9.11,1.32,12.25,3.94c3.13,2.63,4.7,6.02,4.7,10.18v46.31h-21.41v-44.79h-52.07v41.99l66.85,66.42
		c4.41,4.41,6.62,9.37,6.62,14.89V277.9z"/>
	<path class="st2" d="M437.93,292.02h-77.02V92.9h21.41v183.47h55.61V292.02z"/>
	<path class="st2" d="M549.45,292.02h-20.18v-3.44c-8.11,0.93-16.23,1.83-24.34,2.67c-10.06,1.02-18.13,1.53-24.18,1.53
		c-11.19,0-16.79-4.58-16.79-13.74v-45.17c0-9.5,5.8-14.25,17.41-14.25h48.21v-37.28h-44.05v21.12h-19.87V182.6
		c0-9.58,5.75-14.38,17.25-14.38h49.29c11.5,0,17.25,4.79,17.25,14.38V292.02z M529.58,276.62v-43.77h-45.75v44.53L529.58,276.62z"
		/>
	<path class="st2" d="M669.14,292.02h-20.49V183.36l-45.13,1.02v107.64h-20.49v-123.8h20.49v3.44c8.01-0.85,16.07-1.74,24.18-2.67
		c9.86-1.02,17.97-1.53,24.34-1.53c11.4,0,17.1,4.62,17.1,13.87V292.02z"/>
	<path class="st2" d="M787.44,324.59c0,9.58-5.8,14.38-17.41,14.38h-48.68c-11.81,0-17.71-6.07-17.71-18.2
		c0-1.44,0.08-3.58,0.23-6.43c0.15-2.84,0.23-4.9,0.23-6.17h20.18v16.41h42.82v-32.57h-33.73c-9.14,0-16.74-2.52-22.8-7.57
		c-6.06-5.05-9.09-11.39-9.09-19.02v-72.4c0-7.29,2.67-13.38,8.01-18.26c5.34-4.88,12.37-7.32,21.1-7.32c2.36,0,14.53,1.4,36.51,4.2
		v-3.44h20.33V324.59z M767.11,277.13v-93.52c-16.23-0.85-25.67-1.27-28.34-1.27c-11.3,0-16.94,4.75-16.94,14.25v66.29
		c0,9.5,5.65,14.25,16.94,14.25H767.11z"/>
</g>
<g class="st3">
	<path class="st4" d="M120.69,284.64H98.21L53.38,178.02l2.93-3.56h38.2v-73.29H39.52v183.47H18.11V85.52h80.72
		c5.03,0,9.14,1.32,12.32,3.94c3.18,2.63,4.78,6.02,4.78,10.18v75.58c0,9.59-7.81,14.38-23.41,14.38c-1.54,0-3.8-0.06-6.78-0.19
		c-2.98-0.13-5.14-0.19-6.47-0.19C93.12,220.94,106.93,252.75,120.69,284.64z"/>
	<path class="st4" d="M246.7,270.52c0,4.16-1.57,7.55-4.7,10.18c-3.13,2.63-7.22,3.94-12.25,3.94h-60.69
		c-5.03,0-9.17-1.31-12.4-3.94c-3.24-2.63-4.85-6.02-4.85-10.18V220h21.41v48.99h52.07v-47.46l-66.54-66.42
		c-4.62-4.58-6.93-9.63-6.93-15.14V99.64c0-4.16,1.62-7.55,4.85-10.18c3.23-2.63,7.37-3.94,12.4-3.94h60.69
		c5.03,0,9.11,1.32,12.25,3.94c3.13,2.63,4.7,6.02,4.7,10.18v46.31h-21.41v-44.79h-52.07v41.99l66.85,66.42
		c4.41,4.41,6.62,9.37,6.62,14.89V270.52z"/>
	<path class="st4" d="M423.38,284.64h-77.02V85.52h21.41v183.47h55.61V284.64z"/>
	<path class="st4" d="M534.9,284.64h-20.18v-3.44c-8.11,0.93-16.23,1.83-24.34,2.67c-10.06,1.02-18.13,1.53-24.18,1.53
		c-11.19,0-16.79-4.58-16.79-13.74v-45.17c0-9.5,5.8-14.25,17.41-14.25h48.21v-37.28h-44.05v21.12h-19.87v-20.87
		c0-9.58,5.75-14.38,17.25-14.38h49.29c11.5,0,17.25,4.79,17.25,14.38V284.64z M515.03,269.24v-43.77h-45.75v44.53L515.03,269.24z"
		/>
	<path class="st4" d="M654.59,284.64H634.1V175.98L588.97,177v107.64h-20.49v-123.8h20.49v3.44c8.01-0.85,16.07-1.74,24.18-2.67
		c9.86-1.02,17.97-1.53,24.34-1.53c11.4,0,17.1,4.62,17.1,13.87V284.64z"/>
	<path class="st4" d="M772.89,317.21c0,9.58-5.8,14.38-17.41,14.38h-48.68c-11.81,0-17.71-6.07-17.71-18.2
		c0-1.44,0.08-3.58,0.23-6.43c0.15-2.84,0.23-4.9,0.23-6.17h20.18v16.41h42.82v-32.57h-33.73c-9.14,0-16.74-2.52-22.8-7.57
		c-6.06-5.05-9.09-11.39-9.09-19.02v-72.4c0-7.29,2.67-13.38,8.01-18.26c5.34-4.88,12.37-7.32,21.1-7.32c2.36,0,14.53,1.4,36.51,4.2
		v-3.44h20.33V317.21z M752.56,269.75v-93.52c-16.23-0.85-25.67-1.27-28.34-1.27c-11.3,0-16.94,4.75-16.94,14.25v66.29
		c0,9.5,5.65,14.25,16.94,14.25H752.56z"/>
</g>
<g class="st5">
	<path class="st6" d="M111.08,273.67H88.59L43.76,167.05l2.93-3.56h38.2V90.2H29.9v183.47H8.49V74.55h80.72
		c5.03,0,9.14,1.32,12.32,3.94c3.18,2.63,4.78,6.02,4.78,10.18v75.58c0,9.59-7.81,14.38-23.41,14.38c-1.54,0-3.8-0.06-6.78-0.19
		c-2.98-0.13-5.14-0.19-6.47-0.19C83.51,209.97,97.32,241.78,111.08,273.67z"/>
	<path class="st6" d="M237.08,259.55c0,4.16-1.57,7.55-4.7,10.18c-3.13,2.63-7.22,3.94-12.25,3.94h-60.69
		c-5.03,0-9.17-1.31-12.4-3.94c-3.24-2.63-4.85-6.02-4.85-10.18v-50.51h21.41v48.99h52.07v-47.46l-66.54-66.42
		c-4.62-4.58-6.93-9.63-6.93-15.14V88.67c0-4.16,1.62-7.55,4.85-10.18c3.23-2.63,7.37-3.94,12.4-3.94h60.69
		c5.03,0,9.11,1.32,12.25,3.94c3.13,2.63,4.7,6.02,4.7,10.18v46.31h-21.41V90.2h-52.07v41.99l66.85,66.42
		c4.41,4.41,6.62,9.37,6.62,14.89V259.55z"/>
	<path class="st6" d="M413.77,273.67h-77.02V74.55h21.41v183.47h55.61V273.67z"/>
	<path class="st6" d="M525.29,273.67h-20.18v-3.44c-8.11,0.93-16.23,1.83-24.34,2.67c-10.06,1.02-18.13,1.53-24.18,1.53
		c-11.19,0-16.79-4.58-16.79-13.74v-45.17c0-9.5,5.8-14.25,17.41-14.25h48.21V164h-44.05v21.12h-19.87v-20.87
		c0-9.58,5.75-14.38,17.25-14.38h49.29c11.5,0,17.25,4.79,17.25,14.38V273.67z M505.42,258.28v-43.77h-45.75v44.53L505.42,258.28z"
		/>
	<path class="st6" d="M644.97,273.67h-20.49V165.02l-45.13,1.02v107.64h-20.49v-123.8h20.49v3.44c8.01-0.85,16.07-1.74,24.18-2.67
		c9.86-1.02,17.97-1.53,24.34-1.53c11.4,0,17.1,4.62,17.1,13.87V273.67z"/>
	<path class="st6" d="M763.28,306.25c0,9.58-5.8,14.38-17.41,14.38H697.2c-11.81,0-17.71-6.07-17.71-18.2
		c0-1.44,0.08-3.58,0.23-6.43c0.15-2.84,0.23-4.9,0.23-6.17h20.18v16.41h42.82v-32.57h-33.73c-9.14,0-16.74-2.52-22.8-7.57
		c-6.06-5.05-9.09-11.39-9.09-19.02v-72.4c0-7.29,2.67-13.38,8.01-18.26c5.34-4.88,12.37-7.32,21.1-7.32c2.36,0,14.53,1.4,36.51,4.2
		v-3.44h20.33V306.25z M742.95,258.79v-93.52c-16.23-0.85-25.67-1.27-28.34-1.27c-11.3,0-16.94,4.75-16.94,14.25v66.29
		c0,9.5,5.65,14.25,16.94,14.25H742.95z"/>
</g>
</svg>
