<svg xmlns="http://www.w3.org/2000/svg" data-name="Layer 1" width="846.67004" height="387.71065" viewBox="0 0 846.67004 387.71065" xmlns:xlink="http://www.w3.org/1999/xlink"><path d="M313.74006,312.85533a25.66667,25.66667,0,0,0-25.6377,25.63769V617.21763a25.66668,25.66668,0,0,0,25.6377,25.6377H891.46467a25.66667,25.66667,0,0,0,25.63769-25.6377V338.493a25.66666,25.66666,0,0,0-25.63769-25.63769Z" transform="translate(-176.66498 -256.14467)" fill="#fff"/><path d="M891.46467,643.85533H313.74006a26.668,26.668,0,0,1-26.6377-26.6377V338.493a26.668,26.668,0,0,1,26.6377-26.63769H891.46467A26.668,26.668,0,0,1,918.10236,338.493V617.21763A26.668,26.668,0,0,1,891.46467,643.85533Zm-577.72461-330a24.66537,24.66537,0,0,0-24.6377,24.63769V617.21763a24.66538,24.66538,0,0,0,24.6377,24.6377H891.46467a24.66537,24.66537,0,0,0,24.63769-24.6377V338.493a24.66536,24.66536,0,0,0-24.63769-24.63769Z" transform="translate(-176.66498 -256.14467)" fill="#ffffff"/><path d="M465.25342,566.23271a2.80741,2.80741,0,0,1-2.03464-4.86593l.19237-.76476q-.038-.09189-.07644-.18358a7.53909,7.53909,0,0,0-13.90673.05167c-2.27452,5.4781-5.17037,10.96553-5.8834,16.75771a22.30331,22.30331,0,0,0,.39152,7.6706,89.4194,89.4194,0,0,1-8.13413-37.13874,86.307,86.307,0,0,1,.53535-9.62829q.44349-3.93128,1.23055-7.80653A90.45569,90.45569,0,0,1,455.506,491.98755a24.0727,24.0727,0,0,0,10.0118-10.38734,18.3625,18.3625,0,0,0,1.67-5.01791c-.48738.06393-1.83778-7.35909-1.47017-7.81452-.67924-1.03071-1.895-1.54307-2.63681-2.54885-3.68943-5.0021-8.77253-4.12872-11.42612,2.66876-5.6687,2.861-5.72357,7.60577-2.24528,12.16915,2.2129,2.90325,2.517,6.83168,4.45862,9.93985-.1998.25571-.40756.50344-.6073.75916a91.04,91.04,0,0,0-9.50223,15.05378,37.84589,37.84589,0,0,0-2.25945-17.5787c-2.16268-5.21725-6.21632-9.61123-9.786-14.12153-4.2878-5.41757-13.08033-3.05324-13.83575,3.81438q-.011.09975-.02141.19942.79532.44867,1.55705.95247a3.808,3.808,0,0,1-1.53532,6.92992l-.07765.012a37.88983,37.88983,0,0,0,.99876,5.66515c-4.57949,17.71009,5.30731,24.16047,19.42432,24.45023.31164.15979.61531.31958.92695.47144a92.925,92.925,0,0,0-5.00194,23.53931,88.13663,88.13663,0,0,0,.06393,14.23066l-.024-.16778a23.28923,23.28923,0,0,0-7.95036-13.44763c-6.11822-5.0259-14.76211-6.87666-21.36259-10.9165a4.37072,4.37072,0,0,0-6.69422,4.252q.01328.08818.027.17642a25.5806,25.5806,0,0,1,2.86848,1.38225q.79533.44877,1.55706.95247a3.8081,3.8081,0,0,1-1.53533,6.93l-.07772.01193c-.05591.008-.10387.016-.15972.024a37.92262,37.92262,0,0,0,6.97545,10.92265c2.86344,15.46021,15.16195,16.927,28.31753,12.42488h.008a92.89781,92.89781,0,0,0,6.24043,18.21781h22.2928c.08-.24769.15184-.50341.22379-.75113a25.32943,25.32943,0,0,1-6.16855-.36745c1.654-2.02958,3.308-4.07513,4.962-6.10463a1.384,1.384,0,0,0,.10388-.11987c.839-1.03867,1.68595-2.06946,2.52491-3.10816l.00045-.00127a37.1011,37.1011,0,0,0-1.08711-9.45126Z" transform="translate(-176.66498 -256.14467)" fill="#f2f2f2"/><path d="M353.966,553.86369a4.552,4.552,0,0,1-3.299-7.88974c.11478-.4562.19712-.78382.3119-1.24q-.06159-.149-.12393-.29767a12.2241,12.2241,0,0,0-22.54876.08379c-3.688,8.88234-8.38338,17.77981-9.53951,27.1714a36.16371,36.16371,0,0,0,.63483,12.43734,144.98721,144.98721,0,0,1-13.1889-60.21777,139.94114,139.94114,0,0,1,.868-15.61159q.7191-6.37426,1.99525-12.65771a146.66708,146.66708,0,0,1,29.08536-62.16116,39.03223,39.03223,0,0,0,16.23341-16.84233,29.77343,29.77343,0,0,0,2.70775-8.13617c-.79026.10366-2.97984-11.93224-2.38379-12.67067-1.10133-1.67123-3.07254-2.502-4.27538-4.13278-5.98215-8.11055-14.224-6.69442-18.52663,4.32719-9.19138,4.6389-9.28035,12.33221-3.64056,19.73141,3.58806,4.70741,4.08106,11.07707,7.22933,16.11673-.324.41463-.66083.8163-.98469,1.23092a147.61451,147.61451,0,0,0-15.40717,24.40862,61.36443,61.36443,0,0,0-3.66353-28.50259c-3.50665-8.45939-10.07932-15.5839-15.86734-22.897-6.95236-8.7842-21.20882-4.9506-22.43367,6.18475q-.01777.16171-.03472.32334,1.28956.72747,2.52466,1.54435a6.17447,6.17447,0,0,1-2.48942,11.23637l-.12591.01941a61.43524,61.43524,0,0,0,1.61943,9.18563c-7.42532,28.71562,8.6054,39.17444,31.49511,39.64427.5053.25908.99769.51816,1.503.76441a150.67077,150.67077,0,0,0-8.11027,38.16728,142.905,142.905,0,0,0,.10366,23.074l-.03889-.272a37.76173,37.76173,0,0,0-12.89093-21.80436c-9.92024-8.14913-23.93569-11.15-34.63788-17.70031-5.15173-3.15315-11.75331.92159-10.8542,6.89434q.02153.143.04377.286a41.47519,41.47519,0,0,1,4.651,2.24122q1.28956.72765,2.52466,1.54436a6.17454,6.17454,0,0,1-2.48943,11.23648l-.126.01935c-.09065.013-.16842.026-.259.039A61.48913,61.48913,0,0,0,260.86779,536.452c4.64285,25.06761,24.584,27.446,45.91482,20.146h.013A150.62571,150.62571,0,0,0,316.914,586.13691h36.14615c.12965-.40161.2462-.81624.36285-1.21791a41.06914,41.06914,0,0,1-10.00185-.59579c2.68186-3.2908,5.36362-6.60752,8.04548-9.89821a2.243,2.243,0,0,0,.16843-.19436c1.36032-1.68413,2.73364-3.35547,4.094-5.03966l.00073-.002a60.157,60.157,0,0,0-1.76268-15.32453Z" transform="translate(-176.66498 -256.14467)" fill="#f2f2f2"/><path d="M848.65424,274.18523c-2.42692-18.59978-45.32926-17.41328-49.38014.08608-2.149-1.344-7.6151-.41373-9.65378,1.1311s-3.34526,3.81585-4.62472,6.0204c-1.74633,3.062-3.55682,6.23354-3.94332,9.7444-.40322,3.50409.9738,7.47362,4.15053,9.03391,2.52012,1.24338,8.06567.40374,10.8361-.15291,1.93321-.38435,3.55582-.721,4.933-1.0511a9.47428,9.47428,0,0,0-.90152-6.41525,7.68965,7.68965,0,0,1,5.27656,3.90345c.21715.41871,8.07715,59.5855,8.07715,59.5855a34.14394,34.14394,0,0,0,6.47573.16162,74.297,74.297,0,0,0,.72332-22.07656A64.33438,64.33438,0,0,1,825.992,347.405a78.65425,78.65425,0,0,1,1.82211,7.82023c18.70606-3.49791,43.99269-15.546,48.60648-36.00359q-.038-.099-.07645-.19794a2.9059,2.9059,0,0,1,4.78372-3.10718c.56394.58039,1.067,1.0765,1.4914,1.46091C880.97968,304.31287,871.06988,292.55659,848.65424,274.18523Z" transform="translate(-176.66498 -256.14467)" fill="#2f2e41"/><polygon points="274.389 327.169 275.039 315.352 321.943 312.292 320.983 329.733 274.389 327.169" fill="#a0616a"/><path d="M434.01917,544.57264a5.29793,5.29793,0,0,0-5.57558,4.99167L427.1528,573.059l8.14873,4.50311-8.45329,1.12078-.49348,8.86473,30.00318-.84689.349-3.0759L458.16062,571.08l.461-4.04758-8.45623-.46524-11.9268-19.47709A5.289,5.289,0,0,0,434.01917,544.57264Z" transform="translate(-176.66498 -256.14467)" fill="#2f2e41"/><polygon points="398.113 300.722 390.485 291.674 422.533 257.29 433.791 270.644 398.113 300.722" fill="#a0616a"/><path d="M535.81687,540.3424a5.29792,5.29792,0,0,0-.63678,7.45643l15.16785,17.98892,9.01949-2.30839-5.38556,6.61135,5.71826,6.7918,21.26153-21.18621-1.85473-2.4785-7.54221-10.12915-2.43934-3.26267-6.47506,5.45875-22.0358-6.00239A5.289,5.289,0,0,0,535.81687,540.3424Z" transform="translate(-176.66498 -256.14467)" fill="#2f2e41"/><path d="M901.19661,533.96247s32.38616,69.31912-101.72943,50.64018c0,0-71.45446-79.18781-69.39008-88.71558,0,0-30.41185-30.90259-28.92373-31.46518s2.40611-1.78452-.05289-1.67355-2.459-3.5495-2.459-3.5495-46.78009,48.5062-93.05872,78.08275l-18.94128-21.42228s1-5,4-5,4.03394.721,4.517-3.13952-1.906-7.17544,1.28854-7.518,69.40237-77.72218,69.40237-77.72218,7.14325-25.48687,28.96768-20.55361,135.23,97.13406,135.23,97.13406Z" transform="translate(-176.66498 -256.14467)" fill="#2f2e41"/><path d="M846.58277,586.84879l-213.09483-2.84523-147.90517,3.278-2.94128-19.42228,4.82369-2.036s3.5397,2.04354,5.32864-2.24911,7.11076-3.00129,7.11076-3.00129l136.73691-35.71363,195.94128,15.98948Z" transform="translate(-176.66498 -256.14467)" fill="#2f2e41"/><path d="M744.00023,379.21771a13.09822,13.09822,0,0,1,11.01188,14.5774,12.56608,12.56608,0,0,1-.46,2.02574l36.40688,27.6155-7.51294,23.40381-45.78293-43.22188a13.06187,13.06187,0,0,1-8.07424-13.75137,12.50016,12.50016,0,0,1,14.0718-10.70016Q743.8308,379.18991,744.00023,379.21771Z" transform="translate(-176.66498 -256.14467)" fill="#a0616a"/><path d="M904.6128,380.94156l-13.09,36.24-51.19,72.34s-.42-.18-1.18-.5c-4.4-1.9-20.38-8.88-35.41-16.81-14.11-7.45-27.4-15.74-29.46-21.44q-.33-.9-.6-1.74v-.01a37.51139,37.51139,0,0,1-1.79-8.96c-.17-2.35-.02-3.61-.34-3.76-.25-.11-.77.43-1.92,1.65-.08.08-.15.16-.23.23-4.16,4.17005-9.27,3.63-8.02,1.65,1.28-2.03.61-1.99-1.27-4.11-1.4-1.58-5.95-7.76-8.19-10.81-.77-1.05-1.26-1.73-1.26-1.73l.76995-1.21,2.13-3.34,10.13-15.88.56-.87s20.82,4.81,23.59,9.38c2.78,4.57-4.19,4.42,2.78,4.57,6.97.15,14.08-9.33,8.99.1-5.09,9.42005-3.75,12.71,2.55,11.22,2.56-.61,6.61,1.32,10.51,3.82v.01a82.53159,82.53159,0,0,1,7.05,5.12994c2.41,1.94,4.04,3.41,4.04,3.41l39.54-80.22,4.38-8.88a22.668,22.668,0,0,1,13.26-11.5l1.37,2.39A271.15657,271.15657,0,0,1,904.6128,380.94156Z" transform="translate(-176.66498 -256.14467)" fill="#6c63ff"/><path d="M906.80274,495.96158c12.12006,2.82-.77383,91.04484-15.22,91.32-105,2-73.03-56.91-78.66-62.55-5.63-5.65-10.71-1.6-5.63-10.39,3.7-6.4,9.19-5.45,9.27-9.04.04-1.34-.67-3.3-2.51-6.52-6.76-11.84-6.76-15.37-6.76-15.37a43.43941,43.43941,0,0,1-3.55-11.2,53.18549,53.18549,0,0,1-.4-17.48,56.83055,56.83055,0,0,1,9.33-23.75v-.01c.50994-.76,1.04-1.53,1.6-2.29,1.27-1.73,8.31-1.4,8.31-1.4l15-63-8.68-25.12,41.11-19.26,10.93,19.02,1.37,2.39a271.15657,271.15657,0,0,1,22.3,39.63c6.06994,13.51,11.06,28.51,11.24,41.56.48,34.03-5.39,44.15-5.39,44.15s14.25,10.65,7.12,17.16C910.46277,490.33158,894.68274,493.14157,906.80274,495.96158Z" transform="translate(-176.66498 -256.14467)" fill="#6c63ff"/><path d="M720.56314,370.9294l-6.70765,5.09521a6.30367,6.30367,0,0,0-1.19153,8.81853l16.15461,21.23364,9.53929,12.52734a6.29315,6.29315,0,0,0,8.80445,1.19l6.71545-5.10148a6.31459,6.31459,0,0,0,1.18373-8.81225l-.9899-1.30853-19.5696-25.7121-5.13439-6.74035A6.28,6.28,0,0,0,720.56314,370.9294Z" transform="translate(-176.66498 -256.14467)" fill="#3f3d56"/><path d="M723.50358,374.99408l-5.71693,4.34846a4.91193,4.91193,0,0,0-.93253,6.8764l7.48273,9.831,3.98762,5.23709,2.66054,3.494,5.95009,7.81677a4.90535,4.90535,0,0,0,6.8764.93254l4.28382-3.2582,1.42531-1.084a4.924,4.924,0,0,0,1.85-4.82892,4.84476,4.84476,0,0,0-.91593-2.0615l-17.582-23.10137L730.38,375.92667A4.89915,4.89915,0,0,0,723.50358,374.99408Z" transform="translate(-176.66498 -256.14467)" fill="#6c63ff"/><path d="M728.68823,398.69a13.09821,13.09821,0,0,1,11.01188,14.57739,12.565,12.565,0,0,1-.46,2.02574L775.647,442.9086l-7.51294,23.4038-45.78293-43.22188a13.06189,13.06189,0,0,1-8.07425-13.75137A12.50018,12.50018,0,0,1,728.3487,398.639Q728.5188,398.66215,728.68823,398.69Z" transform="translate(-176.66498 -256.14467)" fill="#a0616a"/><path d="M877.17284,357.73458l0,0a22.61758,22.61758,0,0,1,16.76119,29.84416l-17.71882,49.07261-51.19846,72.34645S763.617,483.0627,758.96832,470.24356s-.45081-17.24246-4.64872-12.81915-9.52063,3.89886-8.2463,1.87467.6037-1.981-1.27265-4.10155S735.352,442.657,735.352,442.657l13.58821-21.30125s20.82083,4.80643,23.59489,9.37927-4.19791,4.42332,2.77406,4.57285,14.08409-9.334,8.99147.09332-3.74987,12.714,2.55073,11.22016,21.59473,12.37426,21.59473,12.37426l43.92859-89.09964A22.61759,22.61759,0,0,1,877.17284,357.73458Z" transform="translate(-176.66498 -256.14467)" fill="#6c63ff"/><circle cx="827.92841" cy="305.14908" r="32.59204" transform="translate(-149.94334 418.66522) rotate(-45)" fill="#a0616a"/><path d="M866.04,269.643c-2.42692-18.59978-45.32926-17.41329-49.38014.08608-2.149-1.344-7.6151-.41373-9.65379,1.1311s-3.34525,3.81585-4.62471,6.0204c-1.74633,3.062-13.96731,13.42128-15.79855,10.401-4.12116-6.79709-12.20276,8.05572-6,18,1.48724,2.38437,30.22957-1.44335,33-2,1.93321-.38435-1.37723.3301,0,0,.44491-2.15735,4.93509-13.30366,3.87339-15.24194a7.68965,7.68965,0,0,1,5.27656,3.90345c.21715.41871,8.07715,59.58549,8.07715,59.58549a34.14228,34.14228,0,0,0,6.47573.16162,74.297,74.297,0,0,0,.72332-22.07655,64.33438,64.33438,0,0,1,5.36885,13.24911,78.6536,78.6536,0,0,1,1.82211,7.82023c18.70606-3.49791,43.99269-15.546,48.60648-36.00359C868.58277,306.28159,888.4556,288.01437,866.04,269.643Z" transform="translate(-176.66498 -256.14467)" fill="#2f2e41"/><path d="M176.665,587.25705a1.18647,1.18647,0,0,0,1.19006,1.19h844.29a1.19,1.19,0,0,0,0-2.38H177.855A1.18651,1.18651,0,0,0,176.665,587.25705Z" transform="translate(-176.66498 -256.14467)" fill="#ccc"/><ellipse cx="573.27891" cy="362.02083" rx="5.25681" ry="7.55666" transform="translate(-44.17591 621.05778) rotate(-81.72174)" fill="#e6e6e6"/><ellipse cx="622.45043" cy="357.22278" rx="5.2568" ry="7.55666" transform="translate(2.66392 665.60973) rotate(-81.72174)" fill="#3f3d56"/><ellipse cx="559.8143" cy="322.21267" rx="5.25681" ry="7.55666" transform="translate(-16.3085 573.65691) rotate(-81.72174)" fill="#ff6584"/><ellipse cx="542.60374" cy="306.96959" rx="4.77581" ry="3.3223" transform="translate(54.87503 591.09198) rotate(-89.56675)" fill="#e6e6e6"/><ellipse cx="535.35801" cy="276.59797" rx="4.77581" ry="3.3223" transform="translate(78.05484 553.7045) rotate(-89.56675)" fill="#3f3d56"/><ellipse cx="591.70317" cy="330.04989" rx="4.77581" ry="3.3223" transform="translate(80.52356 663.09579) rotate(-89.56675)" fill="#e6e6e6"/><ellipse cx="567.94137" cy="341.91388" rx="4.77581" ry="3.3223" transform="translate(45.07778 651.10894) rotate(-89.56675)" fill="#ff6584"/><ellipse cx="601.01863" cy="363.84162" rx="4.77581" ry="3.3223" transform="translate(55.97781 705.9472) rotate(-89.56675)" fill="#3f3d56"/><ellipse cx="608.6985" cy="627.9356" rx="2.02806" ry="7.74518" transform="translate(-219.54016 955.1165) rotate(-87.72792)" fill="#e6e6e6"/><ellipse cx="658.00583" cy="625.3252" rx="2.02806" ry="7.74518" transform="translate(-169.57926 1001.87816) rotate(-87.72792)" fill="#3f3d56"/><ellipse cx="589.7554" cy="612.72273" rx="2.02806" ry="7.74518" transform="translate(-222.53134 921.57853) rotate(-87.72792)" fill="#ff6584"/><ellipse cx="570.25811" cy="607.08186" rx="1.82088" ry="3.44561" transform="translate(-274.15509 848.78757) rotate(-83.49842)" fill="#e6e6e6"/><ellipse cx="558.88003" cy="595.42891" rx="1.82088" ry="3.44561" transform="translate(-272.66683 827.14917) rotate(-83.49842)" fill="#3f3d56"/><ellipse cx="623.18112" cy="615.27062" rx="1.82088" ry="3.44561" transform="translate(-235.36069 908.63175) rotate(-83.49842)" fill="#e6e6e6"/><ellipse cx="600.61673" cy="620.22926" rx="1.82088" ry="3.44561" transform="translate(-260.29684 890.60965) rotate(-83.49842)" fill="#ff6584"/><ellipse cx="637.11393" cy="628.21662" rx="1.82088" ry="3.44561" transform="translate(-235.86824 933.95508) rotate(-83.49842)" fill="#3f3d56"/></svg>
