<svg width="100%" height="100%" id="svg" viewBox="0 0 1440 400" xmlns="http://www.w3.org/2000/svg" class="transition duration-300 ease-in-out delay-150"><path d="M 0,400 C 0,400 0,133 0,133 C 97.08133971291866,122.50239234449761 194.16267942583733,112.00478468899522 282,125 C 369.8373205741627,137.99521531100478 448.43062200956933,174.48325358851676 541,168 C 633.5693779904307,161.51674641148324 740.1148325358854,112.06220095693779 846,104 C 951.8851674641146,95.93779904306221 1057.11004784689,129.26794258373207 1156,141 C 1254.88995215311,152.73205741626793 1347.4449760765551,142.86602870813397 1440,133 C 1440,133 1440,400 1440,400 Z" stroke="none" stroke-width="0" fill="#bdbcf388" class="transition-all duration-300 ease-in-out delay-150 path-0"></path><path d="M 0,400 C 0,400 0,266 0,266 C 79.66507177033492,276.1244019138756 159.33014354066984,286.2488038277512 252,288 C 344.66985645933016,289.7511961722488 450.3444976076555,283.12918660287085 552,270 C 653.6555023923445,256.87081339712915 751.2918660287081,237.23444976076559 850,236 C 948.7081339712919,234.76555023923441 1048.488038277512,251.93301435406698 1147,260 C 1245.511961722488,268.066985645933 1342.755980861244,267.03349282296654 1440,266 C 1440,266 1440,400 1440,400 Z" stroke="none" stroke-width="0" fill="#bdbcf3ff" class="transition-all duration-300 ease-in-out delay-150 path-1"></path></svg>