<svg xmlns="http://www.w3.org/2000/svg" data-name="Layer 1" width="325.90614" height="137.76898" viewBox="0 0 325.90614 137.76898" xmlns:xlink="http://www.w3.org/1999/xlink"><path d="M578.448,429.57184l22.39058,67.82353C654.92416,481.96316,641.64743,434.10592,578.448,429.57184Z" transform="translate(-437.04693 -381.11551)" fill="#9e3af3"/><path d="M516.79522,429.65351c26.57972,2.7001,46.96909,15.51842,45.35844,28.51578s-25.02249,24.56922-52.08225,25.74289C512.31041,465.2869,514.54945,446.66161,516.79522,429.65351Z" transform="translate(-437.04693 -381.11551)" fill="#9e3af3"/><path d="M757.76951,439.51573c-7.34648-9.09187-18.9112-12.90727-29.40141-17.42474.26418-5.7597.37883-6.051.48884-15.04157-.01007-6.11335-1.18762-12.59778-5.75834-17.00775-19.24742-15.03867-51.95524-6.96417-74.64077-5.00418-29.11786,3.51908-58.25974,6.91575-87.44578,9.81177-23.37269,1.37606-46.67256,3.728-69.69508,8.08864-10.57465,1.94-21.32206,2.99324-31.76656,5.59953q.74719-.04968,1.49594-.09858c23.25416-.28974,46.53854-.56457,69.79967-.23842,38.09121,2.351,76.29088,1.35418,114.3418-1.37548,17.9343-1.33209,35.89339-3.41933,53.88966-3.25315,6.69728.57269,7.19774,1.01834,8.83468,1.48432.95908,14.44311.26417,65.47394-4.4584,86.20955a52.54381,52.54381,0,0,1-2.03281,7.367c-11.79945-2.19647-23.59968-4.52309-35.59048-5.37138-28.9482-1.30034-57.91113,1.76612-86.86475,2.01015-.12008.00349-.24016.01046-.36024.01394,1.23177-3.59189.99549-7.70632,1.45179-11.45354a385.95565,385.95565,0,0,0-.23706-44.23264c-.12085.59012-.22621,1.18354-.34784,1.77367.17276-5.99869.41524-11.99487.78632-17.9864a208.02651,208.02651,0,0,0-9.75192,43.50268c-.92731,9.43585-2.48446,19.12289-1.10859,28.56047.01859.07011.06275.12085.08444.189-27.03935,1.01718-54.03918,2.902-81.07388,4.03192-10.89382.36179-28.20371,2.29486-34.58336.95792-.09219-.0308-.1379-.04552-.20762-.06856-.103-.0583-.20065-.12473-.30136-.18574-.01937-.01975-.062-.05984-.08832-.08541-.17973-.27482-.51517-.76191-.62441-.9308-.00077.01763-.00309.02615-.024-.0366-.01085-.018-.007-.01492-.00387-.01337-.07747-.24074-.251-.86243-.32848-1.04662-.31065-1.08651-.595-2.18116-.80414-3.2917-4.16478-27.94341-9.35217-55.722-14.39624-83.51746.47489,21.52851,1.41693,43.04212,2.23811,64.55921,1.2829,15.2244-3.851,37.50515,17.75766,38.71271,49.4212,3.19176,100.5018,1.18626,150.06786-.17721,18.39369-1.03248,58.0893-2.412,66.15393-.66005,22.8242,1.78355,42.26219,16.72538,49.071-15.55442,3.65968-17.76386,5.2695-45.20121,5.8025-70.62124.07127-1.93306.13479-3.45825.19135-4.75181,5.17732,4.0571,11.787,8.96328,14.14059,10.76833,3.834,3.09376,7.7989,6.3198,10.24928,10.67575,3.59,6.48869,4.75356,15.42059.42453,23.08043-3.418,5.83659-9.19413,9.64734-16.842,12.67893,8.84165-.30039,17.99783-3.944,22.91562-11.612A26.05841,26.05841,0,0,0,757.76951,439.51573Z" transform="translate(-437.04693 -381.11551)"/><path d="M452.60367,499.358c0-.00949.01162.02615.00388-.01472-.031-.04009-.02789-.03312-.03176-.03525l.00387.01337Z" transform="translate(-437.04693 -381.11551)"/><path d="M516.41569,477.26278c-.03331-1.57032-.14255-3.13811-.1991-4.70766.13247-21.24613-2.10486-42.4853-5.17732-63.48993-3.81927,26.885-6.79644,54.23518-4.3724,81.37891a4.62917,4.62917,0,0,0,6.86306,3.50649c2.0731-1.02144,2.49686-3.49216,2.67039-5.57726C516.50091,484.68,516.46837,480.96565,516.41569,477.26278Z" transform="translate(-437.04693 -381.11551)"/><path d="M644.70441,411.452c-4.1431,22.37953-6.82123,45.16732-5.31289,67.94581a8.58634,8.58634,0,0,0,.1317,1.65786c-.01007.1685-.03564.33564-.04494.50414a2.9535,2.9535,0,0,0,5.88.39993C647.72574,458.52357,646.73567,434.87722,644.70441,411.452Z" transform="translate(-437.04693 -381.11551)"/><path d="M447.06468,428.25161l21.19584,61.16531q10.72905-32.63408,21.45809-65.26816C462.97521,426.98921,436.23184,429.82968,447.06468,428.25161Z" transform="translate(-437.04693 -381.11551)" fill="#9e3af3"/></svg>
