<?xml version="1.0" encoding="iso-8859-1"?>
<!-- Generator: Adobe Illustrator 19.0.0, SVG Export Plug-In . SVG Version: 6.00 Build 0)  -->
<svg version="1.1" id="Layer_1" xmlns="http://www.w3.org/2000/svg" xmlns:xlink="http://www.w3.org/1999/xlink" x="0px" y="0px"
	 viewBox="0 0 512 512" style="enable-background:new 0 0 512 512;" xml:space="preserve">
<path style="fill:#8AE9FF;" d="M342.519,366.324h-53.378V43.339c0-18.274-14.867-33.14-33.141-33.14s-33.141,14.866-33.141,33.14
	v322.984H169.48c-13.519,0-24.479,10.959-24.479,24.479l0,0c0,6.492,2.579,12.718,7.17,17.309l86.519,86.519
	c4.623,4.623,10.771,7.17,17.31,7.17c6.539,0,12.687-2.547,17.31-7.171l86.519-86.518c4.591-4.591,7.17-10.817,7.17-17.309
	C366.998,377.284,356.039,366.324,342.519,366.324z"/>
<g>
	<path style="fill:#248A9C;" d="M256,512c-9.264,0-17.973-3.607-24.523-10.158l-86.518-86.518
		c-6.55-6.55-10.156-15.258-10.156-24.522c0-19.121,15.557-34.677,34.678-34.677h43.178V43.339C212.66,19.443,232.101,0,256,0
		s43.34,19.443,43.34,43.339v312.785h43.178c19.121,0,34.678,15.557,34.678,34.678c0,9.262-3.606,17.97-10.155,24.521l-86.52,86.519
		C273.973,508.393,265.264,512,256,512z M169.481,376.523c-7.874,0-14.28,6.405-14.28,14.279c0,3.814,1.485,7.402,4.183,10.097
		l86.519,86.519c2.698,2.699,6.283,4.184,10.097,4.184c3.814,0,7.401-1.485,10.096-4.183l86.52-86.519
		c2.698-2.698,4.183-6.284,4.183-10.097c0-7.874-6.406-14.28-14.28-14.28h-53.378c-5.632,0-10.199-4.567-10.199-10.199V43.339
		c0-12.649-10.292-22.941-22.942-22.941c-12.65,0-22.942,10.292-22.942,22.941v322.984c0,5.632-4.567,10.199-10.199,10.199H169.481z
		"/>
	<path style="fill:#248A9C;" d="M310.957,426.668c-2.611,0-5.22-0.996-7.212-2.987c-3.983-3.983-3.983-10.441,0-14.425l1.494-1.494
		c3.984-3.982,10.44-3.982,14.425,0c3.983,3.983,3.983,10.441,0,14.425l-1.494,1.494
		C316.177,425.672,313.567,426.668,310.957,426.668z"/>
	<path style="fill:#248A9C;" d="M257.02,480.606c-2.611,0-5.22-0.996-7.212-2.987c-3.983-3.983-3.983-10.441,0-14.425L281,432.003
		c3.986-3.982,10.442-3.981,14.425,0c3.983,3.983,3.983,10.441,0,14.425l-31.192,31.191
		C262.24,479.609,259.63,480.606,257.02,480.606z"/>
</g>
<g>
</g>
<g>
</g>
<g>
</g>
<g>
</g>
<g>
</g>
<g>
</g>
<g>
</g>
<g>
</g>
<g>
</g>
<g>
</g>
<g>
</g>
<g>
</g>
<g>
</g>
<g>
</g>
<g>
</g>
</svg>
