<svg width="100%" height="100%" id="svg" viewBox="0 0 1440 310" xmlns="http://www.w3.org/2000/svg" class="transition duration-300 ease-in-out delay-150"><path d="M 0,400 C 0,400 0,133 0,133 C 81.85645933014354,138.5693779904306 163.71291866028707,144.13875598086125 270,148 C 376.2870813397129,151.86124401913875 507.0047846889952,154.01435406698565 611,142 C 714.9952153110048,129.98564593301435 792.2679425837322,103.80382775119617 890,110 C 987.7320574162678,116.19617224880383 1105.9234449760766,154.77033492822966 1201,164 C 1296.0765550239234,173.22966507177034 1368.0382775119617,153.11483253588517 1440,133 C 1440,133 1440,400 1440,400 Z" stroke="none" stroke-width="0" fill="#bdbcf388" class="transition-all duration-300 ease-in-out delay-150 path-0"></path><path d="M 0,400 C 0,400 0,266 0,266 C 85.17703349282297,286.81339712918657 170.35406698564594,307.6267942583732 257,298 C 343.64593301435406,288.3732057416268 431.76076555023917,248.30622009569373 544,240 C 656.2392344497608,231.69377990430627 792.6028708133971,255.14832535885165 885,258 C 977.3971291866029,260.85167464114835 1025.8277511961724,243.10047846889955 1111,241 C 1196.1722488038276,238.89952153110045 1318.0861244019138,252.44976076555022 1440,266 C 1440,266 1440,400 1440,400 Z" stroke="none" stroke-width="0" fill="#bdbcf3ff" class="transition-all duration-300 ease-in-out delay-150 path-1"></path></svg>