<svg width="100%" height="100%" id="svg" viewBox="0 0 1440 290" xmlns="http://www.w3.org/2000/svg" class="transition duration-300 ease-in-out delay-150"><path d="M 0,400 C 0,400 0,133 0,133 C 105.3397129186603,126.69377990430621 210.6794258373206,120.38755980861244 309,116 C 407.3205741626794,111.61244019138756 498.62200956937795,109.14354066985646 581,119 C 663.377990430622,128.85645933014354 736.8325358851675,151.03827751196172 824,154 C 911.1674641148325,156.96172248803828 1012.0478468899521,140.70334928229664 1117,134 C 1221.952153110048,127.29665071770334 1330.976076555024,130.14832535885168 1440,133 C 1440,133 1440,400 1440,400 Z" stroke="none" stroke-width="0" fill="#bdbcf388" class="transition-all duration-300 ease-in-out delay-150 path-0" transform="rotate(-180 720 200)"></path><path d="M 0,400 C 0,400 0,266 0,266 C 73.28229665071771,272.8038277511962 146.56459330143542,279.60765550239233 247,269 C 347.4354066985646,258.39234449760767 475.02392344497594,230.37320574162683 587,237 C 698.9760765550241,243.62679425837317 795.3397129186603,284.89952153110045 878,290 C 960.6602870813397,295.10047846889955 1029.6172248803828,264.0287081339713 1121,254 C 1212.3827751196172,243.9712918660287 1326.1913875598086,254.98564593301435 1440,266 C 1440,266 1440,400 1440,400 Z" stroke="none" stroke-width="0" fill="#bdbcf3ff" class="transition-all duration-300 ease-in-out delay-150 path-1" transform="rotate(-180 720 200)"></path></svg>